<svg width="40" height="40" viewBox="0 0 40 40" fill="none" xmlns="http://www.w3.org/2000/svg">
<g clip-path="url(#clip0_1631_5266)">
<path d="M0 20C0 8.95431 8.95431 0 20 0V0C31.0457 0 40 8.95431 40 20V20C40 31.0457 31.0457 40 20 40V40C8.95431 40 0 31.0457 0 20V20Z" fill="#F3F4F6"/>
<path d="M40 34.99V40.0016H0V35.0083C2.32658 31.8991 5.34651 29.3755 8.81965 27.6384C12.2928 25.9013 16.1233 24.9984 20.0067 25.0016C28.18 25.0016 35.44 28.925 40 34.99ZM26.67 15C26.67 16.7681 25.9676 18.4638 24.7174 19.714C23.4671 20.9643 21.7714 21.6666 20.0033 21.6666C18.2352 21.6666 16.5395 20.9643 15.2893 19.714C14.039 18.4638 13.3367 16.7681 13.3367 15C13.3367 13.2319 14.039 11.5362 15.2893 10.2859C16.5395 9.03569 18.2352 8.33331 20.0033 8.33331C21.7714 8.33331 23.4671 9.03569 24.7174 10.2859C25.9676 11.5362 26.67 13.2319 26.67 15Z" fill="#D1D5DB"/>
</g>
<defs>
<clipPath id="clip0_1631_5266">
<path d="M0 20C0 8.95431 8.95431 0 20 0V0C31.0457 0 40 8.95431 40 20V20C40 31.0457 31.0457 40 20 40V40C8.95431 40 0 31.0457 0 20V20Z" fill="white"/>
</clipPath>
</defs>
</svg>
