<svg width="48" height="48" viewBox="0 0 48 48" fill="none" xmlns="http://www.w3.org/2000/svg">
<path d="M44.9992 42.5761C44.7994 42.8992 44.5133 42.9962 44.1352 42.9962C33.7738 42.988 23.4124 42.988 13.0509 42.9946C12.4262 42.9946 11.9535 42.7652 11.5638 42.2826C9.12308 39.2632 6.67494 36.2495 4.22927 33.2341C3.97114 32.9159 3.71383 32.5962 3.45077 32.2813C2.99781 31.7404 2.8523 31.1493 3.17126 30.4933C3.48119 29.8562 4.02458 29.6013 4.70772 29.6013C6.90841 29.6005 9.1091 29.6013 11.3098 29.6013C11.8482 29.6013 11.8491 29.6013 11.8491 29.0818C11.8491 27.7805 11.8441 26.4799 11.8532 25.1786C11.8548 24.9106 11.808 24.7824 11.4964 24.7174C7.59402 23.9003 4.68881 20.889 4.0106 16.9916C3.14085 11.9876 6.56643 7.09051 11.5959 6.16815C14.1476 5.69957 16.5028 6.215 18.6583 7.6561C18.8408 7.77777 19.0323 7.90108 19.0743 8.13866C19.1195 8.39597 19.0776 8.64094 18.8383 8.79138C18.5827 8.95251 18.3245 8.93442 18.073 8.75768C17.329 8.23648 16.5242 7.84024 15.6536 7.578C10.9711 6.16732 6.0255 9.26161 5.23302 14.0995C4.49069 18.6324 7.65896 22.9697 12.168 23.5821C12.5996 23.6405 13.0386 23.6652 13.4743 23.6668C15.675 23.675 17.8757 23.6717 20.0764 23.6684C20.2211 23.6684 20.3732 23.7054 20.5178 23.6315C20.54 23.4744 20.4069 23.4202 20.3288 23.3388C20.0049 23.0042 19.6736 22.6778 19.3456 22.3482C18.7939 21.7949 18.7997 21.596 19.3332 21.0181C20.5984 19.646 21.3185 18.0348 21.478 16.1637C21.64 14.2647 21.1854 12.5335 20.1709 10.9353C19.9062 10.5186 19.9449 10.1889 20.2671 9.96448C20.5836 9.74499 20.9264 9.84857 21.1977 10.2555C22.0009 11.459 22.4842 12.7858 22.6708 14.2171C22.7062 14.4859 22.7868 14.5615 23.0441 14.5541C23.6179 14.5385 24.1925 14.5566 24.7663 14.5484C25.2193 14.5418 25.5892 14.7144 25.9032 15.026C26.3398 15.46 26.7796 15.8916 27.2054 16.3355C27.3632 16.5008 27.4594 16.532 27.6715 16.3767C29.1858 15.266 31.1546 15.7363 32.0203 17.4141C32.1436 17.6533 32.2866 17.7068 32.5291 17.7043C33.7047 17.6944 34.8803 17.6994 36.0558 17.7002C36.1652 17.7002 36.2753 17.6944 36.3839 17.7027C36.9034 17.7396 37.1476 17.9616 37.1328 18.3776C37.1196 18.7598 36.8574 18.9719 36.3551 18.9752C35.1935 18.9818 34.0311 18.9917 32.8695 18.9695C32.4971 18.9621 32.3121 19.0122 32.2053 19.443C31.8748 20.7797 30.6762 21.6494 29.3338 21.6141C28.0201 21.5796 26.8856 20.6424 26.5897 19.3189C26.4812 18.8347 26.4803 18.3357 26.6423 17.8597C26.7097 17.6599 26.6826 17.5358 26.5346 17.3919C26.0627 16.9348 25.6024 16.4663 25.1412 15.9993C24.999 15.8555 24.8419 15.779 24.6323 15.7823C24.1128 15.7913 23.5932 15.793 23.0745 15.7815C22.8566 15.7765 22.7679 15.8357 22.744 16.0717C22.6503 16.9973 22.49 17.9082 22.1529 18.7845C21.7814 19.7521 21.2815 20.6407 20.6173 21.4324C20.4595 21.6207 20.4488 21.7399 20.6329 21.9067C20.896 22.146 21.1385 22.4074 21.3892 22.6598C21.8027 23.0757 21.954 23.5575 21.723 24.1165C21.4903 24.6804 21.0275 24.9024 20.4488 24.904C18.1799 24.909 15.9109 24.9048 13.6412 24.9073C13.0098 24.9081 13.0838 24.8383 13.0822 25.486C13.0789 26.7183 13.0945 27.9514 13.0731 29.1837C13.0674 29.5348 13.1817 29.6129 13.5138 29.612C16.8629 29.6005 20.212 29.6046 23.5603 29.6063C23.7099 29.6063 23.8661 29.5948 24.0075 29.6326C24.3207 29.7156 24.5106 29.9343 24.4811 30.2623C24.4506 30.5944 24.2624 30.8188 23.8998 30.8353C23.7494 30.8427 23.599 30.8386 23.4485 30.8386C17.3249 30.8386 11.2005 30.8386 5.07683 30.8386C4.9675 30.8386 4.85816 30.8394 4.74882 30.8386C4.5655 30.8369 4.39287 30.855 4.28682 31.0367C4.16597 31.2422 4.31312 31.3778 4.41999 31.5102C5.16561 32.4367 5.91781 33.3582 6.66754 34.2822C8.53776 36.5857 10.4146 38.8834 12.2716 41.1975C12.5856 41.5896 12.9063 41.773 13.434 41.7721C23.1123 41.7541 32.7897 41.759 42.468 41.759C42.6316 41.759 42.7952 41.759 42.9876 41.759C42.9391 41.4474 42.6949 41.2912 42.5338 41.0915C39.8514 37.7752 37.1582 34.468 34.4758 31.151C34.2818 30.9109 34.0705 30.832 33.7729 30.8336C31.5312 30.8427 29.2894 30.8345 27.0476 30.8427C26.69 30.8443 26.4228 30.7342 26.3159 30.3848C26.1943 29.9877 26.5116 29.6194 26.9802 29.6079C27.4997 29.5956 28.0193 29.6046 28.5388 29.6046C30.3161 29.6046 32.0926 29.6112 33.87 29.6013C34.5186 29.5981 35.0085 29.8389 35.422 30.3511C38.1702 33.7553 40.9348 37.1463 43.6995 40.5489C43.8269 40.4428 43.7653 40.3121 43.7653 40.2036C43.7694 33.3286 43.7685 26.4536 43.7685 19.5786C43.7685 19.0254 43.72 18.9793 43.1503 18.9785C42.0019 18.9777 40.8543 18.9769 39.7058 18.9785C39.354 18.9793 39.0967 18.8363 38.9791 18.4935C38.8846 18.2189 39.0194 18.0167 39.2175 17.8473C39.3367 17.7454 39.4921 17.7084 39.6393 17.7084C40.8831 17.7043 42.1269 17.7002 43.3707 17.7142C44.1903 17.7232 44.7073 18.1721 45 18.9127C44.9992 26.7989 44.9992 34.6875 44.9992 42.5761ZM31.0716 18.6957C31.0741 17.7495 30.3663 17.0253 29.4349 17.0203C28.4977 17.0154 27.7718 17.7314 27.7652 18.6669C27.7595 19.6148 28.5076 20.3859 29.425 20.3785C30.3498 20.3719 31.07 19.6354 31.0716 18.6957Z" fill="#9CA3AF"/>
<path d="M8.98134 17.9912C8.95175 17.4454 9.1622 17.0006 9.53295 16.6233C9.84945 16.3018 10.1618 15.9755 10.4915 15.668C10.6641 15.5077 10.6575 15.3811 10.5014 15.2258C10.1717 14.8986 9.84205 14.5706 9.51898 14.2368C8.78733 13.4821 8.78733 12.346 9.51487 11.6226C10.2432 10.8975 11.3686 10.9041 12.1258 11.6423C12.4488 11.9572 12.7711 12.2729 13.0794 12.6017C13.2479 12.7809 13.3729 12.7932 13.5463 12.6066C13.8439 12.286 14.1563 11.9794 14.472 11.6769C15.2686 10.914 16.4285 10.8975 17.1577 11.6325C17.8926 12.3732 17.8556 13.5158 17.0697 14.3133C16.7623 14.6248 16.4597 14.9413 16.14 15.2389C15.9706 15.3967 15.964 15.5028 16.1358 15.6647C16.4844 15.9919 16.8198 16.3339 17.1511 16.6784C17.8721 17.4297 17.8671 18.528 17.1462 19.2556C16.4038 20.0045 15.3129 20.0143 14.546 19.2728C14.2212 18.9596 13.8957 18.6464 13.5932 18.3126C13.4057 18.1063 13.2791 18.08 13.0794 18.3028C12.7596 18.6579 12.4201 18.9982 12.0658 19.318C11.4854 19.8425 10.8137 19.9724 10.0928 19.6584C9.37347 19.3452 9.01176 18.7722 8.98134 17.9912ZM10.8228 12.3329C10.5531 12.3156 10.3731 12.4693 10.2695 12.6855C10.1446 12.9445 10.2144 13.1952 10.4167 13.3991C10.9075 13.894 11.404 14.3831 11.8931 14.8797C12.3165 15.3088 12.3132 15.6014 11.8841 16.0363C11.4229 16.5033 10.956 16.9644 10.4948 17.4306C10.147 17.7816 10.1133 18.1227 10.3928 18.3924C10.683 18.6719 11.0061 18.6439 11.3588 18.2954C11.8356 17.8252 12.3042 17.3467 12.7801 16.8748C13.1706 16.4876 13.4814 16.4819 13.8727 16.8658C14.3314 17.3155 14.7802 17.775 15.2357 18.2288C15.6393 18.6316 15.9665 18.6859 16.26 18.4022C16.5641 18.1079 16.5099 17.7709 16.0882 17.3467C15.6352 16.8913 15.1789 16.4391 14.7276 15.9812C14.3659 15.6138 14.3676 15.2899 14.7326 14.9199C15.2217 14.4234 15.7207 13.9367 16.2065 13.4369C16.5181 13.1163 16.5271 12.7538 16.2518 12.4973C15.9912 12.2548 15.6451 12.277 15.3475 12.5705C14.8608 13.0505 14.3832 13.5397 13.8973 14.0198C13.4822 14.43 13.1838 14.4308 12.7727 14.0239C12.2968 13.5528 11.8249 13.0777 11.353 12.6025C11.2042 12.4529 11.048 12.3263 10.8228 12.3329Z" fill="#9CA3AF"/>
<path d="M30.7082 35.1947C32.0334 35.1947 33.3585 35.1964 34.6837 35.1939C35.2271 35.1931 35.6645 35.4027 35.9933 35.8335C36.6485 36.6917 37.2963 37.5557 37.9539 38.4107C38.2499 38.7954 38.3954 39.1949 38.1652 39.6635C37.9317 40.1387 37.4993 40.2414 37.0324 40.2472C36.1585 40.2579 35.2838 40.2505 34.4092 40.2505C32.7149 40.2505 31.0214 40.2406 29.3271 40.2554C28.6029 40.262 28.0463 40.0219 27.6164 39.4111C27.0343 38.585 26.4022 37.795 25.7897 36.9893C25.5069 36.6169 25.3663 36.2256 25.6006 35.7727C25.8316 35.3263 26.2221 35.1923 26.6907 35.1931C28.0307 35.1964 29.3698 35.1947 30.7082 35.1947ZM36.826 38.9746C36.1741 38.1213 35.5814 37.3436 34.9854 36.5676C34.8934 36.4476 34.7569 36.4295 34.6163 36.4295C32.1731 36.4295 29.7299 36.4295 27.2867 36.4303C27.2086 36.4303 27.1116 36.404 27.0623 36.4887C26.999 36.598 27.1001 36.6638 27.1535 36.7345C27.6632 37.4102 28.1762 38.0835 28.6867 38.7592C28.7911 38.8974 28.9111 38.9779 29.0977 38.9779C31.6363 38.973 34.174 38.9746 36.826 38.9746Z" fill="#9CA3AF"/>
<path d="M35.6334 13.0126C35.8587 12.9986 36.0313 13.1088 36.1661 13.2707C36.3305 13.4689 36.4506 13.4401 36.6273 13.2691C36.9742 12.932 37.3384 12.9181 37.5982 13.191C37.8719 13.4787 37.853 13.7985 37.4905 14.1553C37.3047 14.3378 37.3261 14.4332 37.4962 14.6091C37.8547 14.9798 37.8686 15.293 37.5875 15.5783C37.3138 15.857 36.9783 15.8381 36.6265 15.4862C36.4506 15.3103 36.3462 15.3078 36.1653 15.4838C35.7806 15.8562 35.4485 15.8693 35.1657 15.5676C34.9158 15.3013 34.9412 14.9313 35.3038 14.5992C35.5775 14.3485 35.3728 14.2433 35.2281 14.0945C35.0317 13.8922 34.9306 13.6555 35.0539 13.3867C35.1616 13.1507 35.3465 12.9912 35.6334 13.0126Z" fill="#9CA3AF"/>
<path d="M22.1456 38.9746C22.7178 38.9746 23.2899 38.9705 23.8621 38.9763C24.3044 38.9812 24.634 39.2558 24.6299 39.6019C24.625 39.9677 24.3315 40.2423 23.8752 40.2464C22.7169 40.2587 18.5586 40.2612 17.4012 40.2447C16.8989 40.2373 16.6062 39.9677 16.6185 39.5945C16.6309 39.218 16.9416 38.9771 17.4291 38.9746C18.0013 38.9722 21.5734 38.9746 22.1456 38.9746Z" fill="#9CA3AF"/>
<path d="M20.8347 35.9293C21.0937 35.9301 21.3535 35.9137 21.6108 35.9334C21.9791 35.9614 22.2479 36.2376 22.252 36.5582C22.2553 36.8747 21.9873 37.1764 21.6223 37.1928C21.092 37.2175 18.5593 37.2183 18.0291 37.192C17.6657 37.1739 17.3994 36.8648 17.4084 36.5492C17.4183 36.2261 17.6871 35.9581 18.0579 35.9318C18.316 35.9137 20.5758 35.9285 20.8347 35.9293Z" fill="#9CA3AF"/>
<path d="M39.4264 9.85147C37.5349 9.84798 35.9839 8.30039 36.0001 6.43329C36.0152 4.57083 37.5895 3.00233 39.4474 3C41.3156 2.99768 42.84 4.55108 42.8388 6.45769C42.8377 8.40031 41.3749 9.85496 39.4264 9.85147ZM41.5 6.4391C41.5 5.5 40.9249 4.5 39.4625 4.5C38 4.5 37.5 5.5 37.5 6.45188C37.5 8 38.5237 8.51046 39.4741 8.5C40.4152 8.48838 41.5 8 41.5 6.4391Z" fill="#9CA3AF"/>
</svg>
