<svg width="129" height="22" viewBox="0 0 129 22" fill="none" xmlns="http://www.w3.org/2000/svg">
<path d="M23.3375 18.1482L21.4495 15.4406C21.0501 14.8445 20.5518 14.3206 19.9764 13.8915C19.4532 13.535 18.8543 13.305 18.2267 13.2207C19.7071 12.9219 21.0394 12.1217 21.9993 10.9557C22.9084 9.77901 23.3811 8.32357 23.3375 6.83736C23.3375 4.7097 22.6829 3.08206 21.3734 1.95478C20.0639 0.827502 18.1137 0.264903 15.5226 0.267324H5.45319C5.10408 0.227903 4.75058 0.267321 4.41883 0.383161C4.08711 0.499001 3.78572 0.687802 3.53696 0.936081C3.2882 1.18401 3.09846 1.48485 2.98182 1.81647C2.86519 2.14774 2.82466 2.50114 2.86322 2.85039V4.49635H14.6374C15.8753 4.49635 16.763 4.69345 17.3 5.08766C17.837 5.48186 18.1057 6.12607 18.1057 7.02063C18.1057 7.89202 17.837 8.52032 17.3 8.90519C16.764 9.29248 15.8753 9.48266 14.6374 9.48266H13.7937H1.24146V13.6771H12.7805C13.1713 13.666 13.5572 13.7653 13.894 13.9641C14.2501 14.1986 14.5551 14.5032 14.7896 14.8597L18.7489 20.6413C19.0238 21.0625 19.401 21.4076 19.845 21.6441C20.3575 21.9118 20.9363 22.0249 21.5117 21.9688C22.0871 21.9128 22.6338 21.6908 23.0851 21.3295C23.3375 21.14 23.5419 20.8938 23.6819 20.6109C23.8216 20.3281 23.8932 20.0165 23.8908 19.7008C23.8638 19.1399 23.6716 18.5995 23.3375 18.1482Z" fill="#1BCC73"/>
<path d="M46.2531 5.14642C45.4256 3.53537 44.1327 2.20996 42.5427 1.34271C40.7705 0.45956 38.8172 0 36.8372 0C34.8572 0 32.9038 0.45956 31.1316 1.34271C29.5406 2.21341 28.2442 3.53745 27.4074 5.14642C26.5468 6.9677 26.1003 8.95704 26.1003 10.9713C26.1003 12.9855 26.5468 14.9748 27.4074 16.7961C28.2449 18.4117 29.5403 19.7447 31.1316 20.6275C32.8955 21.5186 34.8437 21.9826 36.8199 21.9826C38.7961 21.9826 40.7443 21.5186 42.5081 20.6275C44.1033 19.7471 45.4017 18.4141 46.2392 16.7961C47.0954 14.9738 47.5394 12.9848 47.5394 10.9713C47.5394 8.95773 47.0954 6.96874 46.2392 5.14642H46.2531ZM40.6443 15.9766C39.7221 17.1291 38.4544 17.7056 36.8406 17.7056C35.2268 17.7056 33.9591 17.1374 33.0369 16.0008C32.1147 14.8666 31.6537 13.1954 31.6537 10.9868C31.6537 8.77826 32.1147 7.11051 33.0369 5.98323C33.9591 4.85595 35.2268 4.29335 36.8406 4.29577C37.5602 4.2643 38.2774 4.40158 38.9347 4.69654C39.5921 4.99115 40.1716 5.4355 40.627 5.9936C41.5493 7.13229 42.0102 8.79694 42.0102 10.9868C42.0102 13.1767 41.5548 14.84 40.6443 15.9766Z" fill="#1BCC73"/>
<path d="M66.9522 15.8072C66.7036 15.8003 66.4556 15.8411 66.2226 15.9282C66.0185 16.0078 65.7039 16.1634 65.2786 16.3847C64.383 16.7927 63.6568 17.0763 63.0897 17.2837C62.5212 17.4746 61.9258 17.5718 61.3262 17.5707C59.5166 17.5707 58.1725 17.0289 57.2942 15.9455C56.4159 14.8622 55.9757 13.2093 55.9733 10.9869C55.9733 8.7738 56.4135 7.12679 57.2942 6.0455C58.176 4.95626 59.5177 4.41683 61.3262 4.41683C61.9849 4.41475 62.6405 4.50673 63.273 4.69C63.9787 4.90508 64.653 5.21215 65.2786 5.60289C65.5479 5.77613 65.8325 5.92448 66.1292 6.0455C66.3941 6.1361 66.6724 6.18036 66.9522 6.17691C67.2036 6.17691 67.4512 6.11812 67.6752 6.00436C67.8993 5.89094 68.0936 5.72599 68.242 5.52336C68.6044 5.07279 68.7932 4.50708 68.7745 3.92926C68.7911 3.55062 68.7126 3.17371 68.5463 2.8331C68.363 2.51532 68.1085 2.24422 67.8028 2.04124C65.8118 0.668793 63.4396 -0.043537 61.0219 0.00452803C59.0567 -0.041808 57.1127 0.420517 55.3785 1.3462C53.7789 2.22209 52.4763 3.55477 51.6371 5.17411C50.7674 6.99332 50.3162 8.98438 50.3162 11.0007C50.3162 13.017 50.7674 15.0081 51.6371 16.8273C52.4774 18.4459 53.7796 19.7783 55.3785 20.6552C57.1127 21.5809 59.0567 22.0432 61.0219 21.9969C63.4396 22.0435 65.8111 21.3312 67.8028 19.9601C68.112 19.7537 68.3668 19.4764 68.5463 19.151C68.7098 18.8156 68.788 18.4449 68.7745 18.0721C68.7921 17.4933 68.6033 16.9272 68.242 16.4746C68.0943 16.2699 67.9007 16.1028 67.6766 15.987C67.4525 15.8712 67.2046 15.8096 66.9522 15.8072Z" fill="#1BCC73"/>
<path d="M89.5806 17.5085L82.8273 10.5754L89.0516 4.46523C89.3196 4.23321 89.5367 3.94793 89.6892 3.62773C89.8414 3.30752 89.9257 2.95931 89.9368 2.60487C89.9368 2.27672 89.869 1.95237 89.7376 1.65187C89.6059 1.35103 89.4136 1.08131 89.1726 0.858625C88.9406 0.617608 88.6615 0.427424 88.3524 0.299827C88.0432 0.17223 87.7113 0.109988 87.3769 0.117249C87.0425 0.124165 86.7133 0.200588 86.4101 0.341325C86.1068 0.482063 85.8357 0.684001 85.6144 0.934699L77.0664 9.54145V2.84693C77.0841 2.48108 77.026 2.11593 76.8956 1.77359C76.7653 1.4316 76.5657 1.12004 76.3092 0.858625C76.0308 0.601702 75.704 0.402873 75.3475 0.274585C74.991 0.146296 74.6127 0.090972 74.2344 0.11172C73.8648 0.0923552 73.4948 0.148372 73.1476 0.277007C72.8004 0.405295 72.483 0.603431 72.215 0.858625C71.9622 1.12212 71.7655 1.43402 71.6368 1.77601C71.5085 2.11765 71.4511 2.48212 71.4681 2.84693V19.1199C71.439 19.4906 71.4906 19.8633 71.6192 20.2119C71.7478 20.5608 71.9508 20.8775 72.2136 21.1407C72.4768 21.4035 72.7935 21.6065 73.1424 21.7351C73.491 21.8637 73.8637 21.9152 74.2344 21.8862C74.6124 21.9066 74.9907 21.8513 75.3468 21.7237C75.703 21.5961 76.0301 21.3986 76.3092 21.1428C76.5682 20.8755 76.7691 20.5573 76.8994 20.2088C77.0298 19.8599 77.0868 19.4881 77.0664 19.1164V11.9412L85.7354 20.8246C85.9944 21.1223 86.3129 21.363 86.6701 21.5311C87.0273 21.6988 87.4156 21.7904 87.8102 21.7998C88.1453 21.8018 88.4769 21.7351 88.7853 21.6037C89.0934 21.4723 89.3711 21.279 89.6014 21.0355C89.8445 20.8097 90.0381 20.5359 90.1695 20.2312C90.3009 19.9266 90.3673 19.5978 90.3649 19.2658C90.3621 18.9342 90.2905 18.6064 90.1543 18.3038C90.0181 18.0012 89.8203 17.7305 89.5737 17.5085H89.5806Z" fill="#1BCC73"/>
<path d="M105.822 17.3874H98.1562V12.9474H105.214C105.915 12.9983 106.613 12.8053 107.188 12.4011C107.415 12.2071 107.594 11.963 107.71 11.6881C107.826 11.4132 107.877 11.1151 107.859 10.8174C107.859 9.37887 106.977 8.65963 105.214 8.65963H98.1562V4.5862H105.822C107.586 4.5862 108.468 3.85554 108.468 2.39388C108.486 2.09616 108.435 1.79809 108.319 1.52318C108.202 1.24828 108.024 1.00415 107.797 0.810157C107.221 0.406964 106.524 0.214358 105.822 0.263806H95.3C94.9511 0.224731 94.598 0.264845 94.2668 0.381031C93.9355 0.496871 93.6347 0.686018 93.386 0.933951C93.1378 1.18188 92.9483 1.48272 92.8321 1.81365C92.7156 2.14491 92.6751 2.49796 92.7135 2.84687V19.1198C92.6744 19.4691 92.7145 19.8225 92.8307 20.1541C92.9469 20.4857 93.1364 20.7869 93.3847 21.0352C93.6329 21.2834 93.9341 21.4729 94.2657 21.5891C94.5974 21.7053 94.9508 21.7454 95.3 21.7063H105.822C106.524 21.7558 107.221 21.5632 107.797 21.16C108.024 20.9667 108.203 20.7232 108.319 20.449C108.435 20.1748 108.486 19.8771 108.468 19.5797C108.468 18.1205 107.586 17.3898 105.822 17.3874Z" fill="#1BCC73"/>
<path d="M128.13 0.810175C127.694 0.448132 127.031 0.266245 126.141 0.263824H111.905C111.013 0.263824 110.346 0.447095 109.913 0.810175C109.682 1.0256 109.502 1.29117 109.389 1.58682C109.276 1.88213 109.231 2.19991 109.26 2.51493C109.232 2.83375 109.276 3.15464 109.389 3.4541C109.503 3.75321 109.682 4.02327 109.913 4.24389C110.346 4.6208 111.013 4.80752 111.905 4.80752H116.193V19.1302C116.175 19.4985 116.235 19.8664 116.369 20.2101C116.502 20.5538 116.706 20.8654 116.967 21.1254C117.543 21.6078 118.27 21.872 119.021 21.872C119.773 21.872 120.5 21.6078 121.075 21.1254C121.337 20.865 121.54 20.5531 121.674 20.2098C121.807 19.866 121.867 19.4985 121.85 19.1302V4.79715H126.141C127.029 4.79715 127.692 4.60939 128.13 4.23351C128.361 4.01255 128.54 3.74283 128.654 3.44338C128.768 3.14427 128.813 2.82338 128.787 2.50456C128.811 2.19092 128.764 1.87591 128.651 1.58268C128.537 1.28945 128.359 1.0256 128.13 0.810175Z" fill="#1BCC73"/>
<path d="M8.18488 0.267273H0V4.48938H8.18488V0.267273Z" fill="#1BCC73"/>
</svg>
